<?xml version="1.0" encoding="UTF-8" standalone="no"?>
<!DOCTYPE svg PUBLIC "-//W3C//DTD SVG 1.1//EN"
 "http://www.w3.org/Graphics/SVG/1.1/DTD/svg11.dtd">
<!-- Generated by graphviz version 7.1.0 (20230121.1956)
 -->
<!-- Pages: 1 -->
<svg width="1329pt" height="342pt"
 viewBox="0.00 0.00 1329.00 342.00" xmlns="http://www.w3.org/2000/svg" xmlns:xlink="http://www.w3.org/1999/xlink">
<g id="graph0" class="graph" transform="scale(1 1) rotate(0) translate(4 338)">
<polygon fill="white" stroke="none" points="-4,4 -4,-338 1325,-338 1325,4 -4,4"/>
<!-- 140685994621968 -->
<g id="node1" class="node">
<title>140685994621968</title>
<polygon fill="none" stroke="black" points="0,-264.5 0,-333.5 167,-333.5 167,-264.5 0,-264.5"/>
<text text-anchor="middle" x="83.5" y="-318.3" font-family="Times,serif" font-size="14.00">x1</text>
<polyline fill="none" stroke="black" points="0,-310.5 167,-310.5"/>
<text text-anchor="middle" x="83.5" y="-295.3" font-family="Times,serif" font-size="14.00">data 2.0</text>
<polyline fill="none" stroke="black" points="0,-287.5 167,-287.5"/>
<text text-anchor="middle" x="83.5" y="-272.3" font-family="Times,serif" font-size="14.00">grad &#45;1.4999999999999996</text>
</g>
<!-- 140685994622352* -->
<g id="node9" class="node">
<title>140685994622352*</title>
<ellipse fill="none" stroke="black" cx="230" cy="-211" rx="27" ry="18"/>
<text text-anchor="middle" x="230" y="-207.3" font-family="Times,serif" font-size="14.00">*</text>
</g>
<!-- 140685994621968&#45;&gt;140685994622352* -->
<g id="edge13" class="edge">
<title>140685994621968&#45;&gt;140685994622352*</title>
<path fill="none" stroke="black" d="M150.67,-264.68C156.25,-261.49 161.75,-258.24 167,-255 178.78,-247.72 191.31,-239.02 202.01,-231.29"/>
<polygon fill="black" stroke="black" points="204.02,-234.15 210.01,-225.42 199.88,-228.5 204.02,-234.15"/>
</g>
<!-- 140685994582080 -->
<g id="node2" class="node">
<title>140685994582080</title>
<polygon fill="none" stroke="black" points="1160,-88.5 1160,-157.5 1321,-157.5 1321,-88.5 1160,-88.5"/>
<text text-anchor="middle" x="1240.5" y="-142.3" font-family="Times,serif" font-size="14.00">o</text>
<polyline fill="none" stroke="black" points="1160,-134.5 1321,-134.5"/>
<text text-anchor="middle" x="1240.5" y="-119.3" font-family="Times,serif" font-size="14.00">data 0.7071067811865476</text>
<polyline fill="none" stroke="black" points="1160,-111.5 1321,-111.5"/>
<text text-anchor="middle" x="1240.5" y="-96.3" font-family="Times,serif" font-size="14.00">grad 1.0</text>
</g>
<!-- 140685994582080tanh -->
<g id="node3" class="node">
<title>140685994582080tanh</title>
<ellipse fill="none" stroke="black" cx="1097" cy="-123" rx="27" ry="18"/>
<text text-anchor="middle" x="1097" y="-119.3" font-family="Times,serif" font-size="14.00">tanh</text>
</g>
<!-- 140685994582080tanh&#45;&gt;140685994582080 -->
<g id="edge1" class="edge">
<title>140685994582080tanh&#45;&gt;140685994582080</title>
<path fill="none" stroke="black" d="M1124.28,-123C1131.59,-123 1139.96,-123 1148.78,-123"/>
<polygon fill="black" stroke="black" points="1148.63,-126.5 1158.63,-123 1148.63,-119.5 1148.63,-126.5"/>
</g>
<!-- 140685994622016 -->
<g id="node4" class="node">
<title>140685994622016</title>
<polygon fill="none" stroke="black" points="2,-176.5 2,-245.5 165,-245.5 165,-176.5 2,-176.5"/>
<text text-anchor="middle" x="83.5" y="-230.3" font-family="Times,serif" font-size="14.00">w</text>
<polyline fill="none" stroke="black" points="2,-222.5 165,-222.5"/>
<text text-anchor="middle" x="83.5" y="-207.3" font-family="Times,serif" font-size="14.00">data &#45;3.0</text>
<polyline fill="none" stroke="black" points="2,-199.5 165,-199.5"/>
<text text-anchor="middle" x="83.5" y="-184.3" font-family="Times,serif" font-size="14.00">grad 0.9999999999999998</text>
</g>
<!-- 140685994622016&#45;&gt;140685994622352* -->
<g id="edge11" class="edge">
<title>140685994622016&#45;&gt;140685994622352*</title>
<path fill="none" stroke="black" d="M164.78,-211C173.94,-211 182.94,-211 191.15,-211"/>
<polygon fill="black" stroke="black" points="191.05,-214.5 201.05,-211 191.05,-207.5 191.05,-214.5"/>
</g>
<!-- 140685994622064 -->
<g id="node5" class="node">
<title>140685994622064</title>
<polygon fill="none" stroke="black" points="582,-44.5 582,-113.5 745,-113.5 745,-44.5 582,-44.5"/>
<text text-anchor="middle" x="663.5" y="-98.3" font-family="Times,serif" font-size="14.00">b</text>
<polyline fill="none" stroke="black" points="582,-90.5 745,-90.5"/>
<text text-anchor="middle" x="663.5" y="-75.3" font-family="Times,serif" font-size="14.00">data 6.881373587019543</text>
<polyline fill="none" stroke="black" points="582,-67.5 745,-67.5"/>
<text text-anchor="middle" x="663.5" y="-52.3" font-family="Times,serif" font-size="14.00">grad 0.4999999999999999</text>
</g>
<!-- 140685994622928+ -->
<g id="node14" class="node">
<title>140685994622928+</title>
<ellipse fill="none" stroke="black" cx="808" cy="-123" rx="27" ry="18"/>
<text text-anchor="middle" x="808" y="-119.3" font-family="Times,serif" font-size="14.00">+</text>
</g>
<!-- 140685994622064&#45;&gt;140685994622928+ -->
<g id="edge9" class="edge">
<title>140685994622064&#45;&gt;140685994622928+</title>
<path fill="none" stroke="black" d="M744.91,-103.83C754.46,-106.78 763.79,-109.66 772.19,-112.25"/>
<polygon fill="black" stroke="black" points="770.97,-115.54 781.56,-115.14 773.03,-108.85 770.97,-115.54"/>
</g>
<!-- 140685994622256 -->
<g id="node6" class="node">
<title>140685994622256</title>
<polygon fill="none" stroke="black" points="293,-88.5 293,-157.5 456,-157.5 456,-88.5 293,-88.5"/>
<text text-anchor="middle" x="374.5" y="-142.3" font-family="Times,serif" font-size="14.00">x2w2</text>
<polyline fill="none" stroke="black" points="293,-134.5 456,-134.5"/>
<text text-anchor="middle" x="374.5" y="-119.3" font-family="Times,serif" font-size="14.00">data 0.0</text>
<polyline fill="none" stroke="black" points="293,-111.5 456,-111.5"/>
<text text-anchor="middle" x="374.5" y="-96.3" font-family="Times,serif" font-size="14.00">grad 0.4999999999999999</text>
</g>
<!-- 140685994622400+ -->
<g id="node12" class="node">
<title>140685994622400+</title>
<ellipse fill="none" stroke="black" cx="519" cy="-167" rx="27" ry="18"/>
<text text-anchor="middle" x="519" y="-163.3" font-family="Times,serif" font-size="14.00">+</text>
</g>
<!-- 140685994622256&#45;&gt;140685994622400+ -->
<g id="edge14" class="edge">
<title>140685994622256&#45;&gt;140685994622400+</title>
<path fill="none" stroke="black" d="M455.91,-147.83C465.46,-150.78 474.79,-153.66 483.19,-156.25"/>
<polygon fill="black" stroke="black" points="481.97,-159.54 492.56,-159.14 484.03,-152.85 481.97,-159.54"/>
</g>
<!-- 140685994622256* -->
<g id="node7" class="node">
<title>140685994622256*</title>
<ellipse fill="none" stroke="black" cx="230" cy="-123" rx="27" ry="18"/>
<text text-anchor="middle" x="230" y="-119.3" font-family="Times,serif" font-size="14.00">*</text>
</g>
<!-- 140685994622256*&#45;&gt;140685994622256 -->
<g id="edge2" class="edge">
<title>140685994622256*&#45;&gt;140685994622256</title>
<path fill="none" stroke="black" d="M257.47,-123C264.77,-123 273.13,-123 281.93,-123"/>
<polygon fill="black" stroke="black" points="281.77,-126.5 291.77,-123 281.77,-119.5 281.77,-126.5"/>
</g>
<!-- 140685994622352 -->
<g id="node8" class="node">
<title>140685994622352</title>
<polygon fill="none" stroke="black" points="293,-176.5 293,-245.5 456,-245.5 456,-176.5 293,-176.5"/>
<text text-anchor="middle" x="374.5" y="-230.3" font-family="Times,serif" font-size="14.00">x1w1</text>
<polyline fill="none" stroke="black" points="293,-222.5 456,-222.5"/>
<text text-anchor="middle" x="374.5" y="-207.3" font-family="Times,serif" font-size="14.00">data &#45;6.0</text>
<polyline fill="none" stroke="black" points="293,-199.5 456,-199.5"/>
<text text-anchor="middle" x="374.5" y="-184.3" font-family="Times,serif" font-size="14.00">grad 0.4999999999999999</text>
</g>
<!-- 140685994622352&#45;&gt;140685994622400+ -->
<g id="edge8" class="edge">
<title>140685994622352&#45;&gt;140685994622400+</title>
<path fill="none" stroke="black" d="M455.91,-186.17C465.46,-183.22 474.79,-180.34 483.19,-177.75"/>
<polygon fill="black" stroke="black" points="484.03,-181.15 492.56,-174.86 481.97,-174.46 484.03,-181.15"/>
</g>
<!-- 140685994622352*&#45;&gt;140685994622352 -->
<g id="edge3" class="edge">
<title>140685994622352*&#45;&gt;140685994622352</title>
<path fill="none" stroke="black" d="M257.47,-211C264.77,-211 273.13,-211 281.93,-211"/>
<polygon fill="black" stroke="black" points="281.77,-214.5 291.77,-211 281.77,-207.5 281.77,-214.5"/>
</g>
<!-- 140685994621872 -->
<g id="node10" class="node">
<title>140685994621872</title>
<polygon fill="none" stroke="black" points="2,-88.5 2,-157.5 165,-157.5 165,-88.5 2,-88.5"/>
<text text-anchor="middle" x="83.5" y="-142.3" font-family="Times,serif" font-size="14.00">x2</text>
<polyline fill="none" stroke="black" points="2,-134.5 165,-134.5"/>
<text text-anchor="middle" x="83.5" y="-119.3" font-family="Times,serif" font-size="14.00">data 0.0</text>
<polyline fill="none" stroke="black" points="2,-111.5 165,-111.5"/>
<text text-anchor="middle" x="83.5" y="-96.3" font-family="Times,serif" font-size="14.00">grad 0.4999999999999999</text>
</g>
<!-- 140685994621872&#45;&gt;140685994622256* -->
<g id="edge10" class="edge">
<title>140685994621872&#45;&gt;140685994622256*</title>
<path fill="none" stroke="black" d="M164.78,-123C173.94,-123 182.94,-123 191.15,-123"/>
<polygon fill="black" stroke="black" points="191.05,-126.5 201.05,-123 191.05,-119.5 191.05,-126.5"/>
</g>
<!-- 140685994622400 -->
<g id="node11" class="node">
<title>140685994622400</title>
<polygon fill="none" stroke="black" points="582,-132.5 582,-201.5 745,-201.5 745,-132.5 582,-132.5"/>
<text text-anchor="middle" x="663.5" y="-186.3" font-family="Times,serif" font-size="14.00">xl*w1 + x2*w2</text>
<polyline fill="none" stroke="black" points="582,-178.5 745,-178.5"/>
<text text-anchor="middle" x="663.5" y="-163.3" font-family="Times,serif" font-size="14.00">data &#45;6.0</text>
<polyline fill="none" stroke="black" points="582,-155.5 745,-155.5"/>
<text text-anchor="middle" x="663.5" y="-140.3" font-family="Times,serif" font-size="14.00">grad 0.4999999999999999</text>
</g>
<!-- 140685994622400&#45;&gt;140685994622928+ -->
<g id="edge7" class="edge">
<title>140685994622400&#45;&gt;140685994622928+</title>
<path fill="none" stroke="black" d="M744.91,-142.17C754.46,-139.22 763.79,-136.34 772.19,-133.75"/>
<polygon fill="black" stroke="black" points="773.03,-137.15 781.56,-130.86 770.97,-130.46 773.03,-137.15"/>
</g>
<!-- 140685994622400+&#45;&gt;140685994622400 -->
<g id="edge4" class="edge">
<title>140685994622400+&#45;&gt;140685994622400</title>
<path fill="none" stroke="black" d="M546.47,-167C553.77,-167 562.13,-167 570.93,-167"/>
<polygon fill="black" stroke="black" points="570.77,-170.5 580.77,-167 570.77,-163.5 570.77,-170.5"/>
</g>
<!-- 140685994622928 -->
<g id="node13" class="node">
<title>140685994622928</title>
<polygon fill="none" stroke="black" points="871,-88.5 871,-157.5 1034,-157.5 1034,-88.5 871,-88.5"/>
<text text-anchor="middle" x="952.5" y="-142.3" font-family="Times,serif" font-size="14.00">n</text>
<polyline fill="none" stroke="black" points="871,-134.5 1034,-134.5"/>
<text text-anchor="middle" x="952.5" y="-119.3" font-family="Times,serif" font-size="14.00">data 0.8813735870195432</text>
<polyline fill="none" stroke="black" points="871,-111.5 1034,-111.5"/>
<text text-anchor="middle" x="952.5" y="-96.3" font-family="Times,serif" font-size="14.00">grad 0.4999999999999999</text>
</g>
<!-- 140685994622928&#45;&gt;140685994582080tanh -->
<g id="edge12" class="edge">
<title>140685994622928&#45;&gt;140685994582080tanh</title>
<path fill="none" stroke="black" d="M1033.91,-123C1042.36,-123 1050.64,-123 1058.26,-123"/>
<polygon fill="black" stroke="black" points="1058.1,-126.5 1068.1,-123 1058.1,-119.5 1058.1,-126.5"/>
</g>
<!-- 140685994622928+&#45;&gt;140685994622928 -->
<g id="edge5" class="edge">
<title>140685994622928+&#45;&gt;140685994622928</title>
<path fill="none" stroke="black" d="M835.47,-123C842.77,-123 851.13,-123 859.93,-123"/>
<polygon fill="black" stroke="black" points="859.77,-126.5 869.77,-123 859.77,-119.5 859.77,-126.5"/>
</g>
<!-- 140685994621920 -->
<g id="node15" class="node">
<title>140685994621920</title>
<polygon fill="none" stroke="black" points="52.5,-0.5 52.5,-69.5 114.5,-69.5 114.5,-0.5 52.5,-0.5"/>
<text text-anchor="middle" x="83.5" y="-54.3" font-family="Times,serif" font-size="14.00">w2</text>
<polyline fill="none" stroke="black" points="52.5,-46.5 114.5,-46.5"/>
<text text-anchor="middle" x="83.5" y="-31.3" font-family="Times,serif" font-size="14.00">data 1.0</text>
<polyline fill="none" stroke="black" points="52.5,-23.5 114.5,-23.5"/>
<text text-anchor="middle" x="83.5" y="-8.3" font-family="Times,serif" font-size="14.00">grad 0.0</text>
</g>
<!-- 140685994621920&#45;&gt;140685994622256* -->
<g id="edge6" class="edge">
<title>140685994621920&#45;&gt;140685994622256*</title>
<path fill="none" stroke="black" d="M114.41,-49.79C130.31,-57.94 150.02,-68.5 167,-79 178.78,-86.28 191.31,-94.98 202.01,-102.71"/>
<polygon fill="black" stroke="black" points="199.88,-105.5 210.01,-108.58 204.02,-99.85 199.88,-105.5"/>
</g>
</g>
</svg>
